#!OML:ASF F:\VICON\USERDATA\INSTALL\rory3\rory3.ASF
:FULLY-SPECIFIED
:DEGREES
651
root 0.457554 18.0474 -5.62398 16.0965 34.3176 7.35938
lowerback -6.22555 -2.43423 -5.18024
upperback -1.89429 -2.86941 -1.48474
thorax 1.7083 -1.42907 1.1488
lowerneck -18.109 1.60037 3.69405
upperneck 18.2095 1.65964 -2.10747
head 8.727 0.819604 -1.11179
rclavicle -4.95688e-014 -9.93923e-017
rhumerus -40.8937 3.58451 -88.5882
rradius 27.5824
rwrist 6.21558
rhand -20.1524 8.97282
rfingers 7.12502
rthumb 6.19267 -20.9167
lclavicle -4.95688e-014 -9.93923e-017
lhumerus -32.5292 -17.5777 86.4809
lradius 50.635
lwrist 18.3346
lhand -11.5774 27.3416
lfingers 7.12502
lthumb 14.4642 56.8175
rfemur -39.5372 -5.2398 15.7392
rtibia 20.9254
rfoot -12.0866 3.49
rtoes 1.02698
lfemur 1.10542 11.8536 -28.8009
ltibia 14.4339
lfoot -18.5884 -8.55166
ltoes -19.2603
652
root 0.521402 18.0232 -5.50253 16.2727 34.5481 7.59603
lowerback -6.20158 -2.44794 -5.27058
upperback -1.95763 -2.88497 -1.51154
thorax 1.63328 -1.43405 1.17283
lowerneck -18.23 1.55733 3.76029
upperneck 18.4276 1.58449 -2.12488
head 8.82161 0.787802 -1.13856
rclavicle 6.39481e-014 3.38431e-014
rhumerus -41.0712 3.91676 -88.7526
rradius 27.7316
rwrist 5.59087
rhand -20.1388 9.04683
rfingers 7.12502
rthumb 6.20579 -20.8423
lclavicle 6.39481e-014 3.38431e-014
lhumerus -32.7461 -17.6216 86.6067
lradius 49.9842
lwrist 18.2362
lhand -11.1952 26.3669
lfingers 7.12502
lthumb 14.8325 55.816
rfemur -39.296 -4.82808 15.2634
rtibia 21.0423
rfoot -11.8737 2.79473
rtoes 0.844623
lfemur 1.36933 11.5807 -28.7036
ltibia 14.8047
lfoot -18.4536 -8.9282
ltoes -19.6097
653
root 0.59107 17.9971 -5.37545 16.3022 34.7286 7.74426
lowerback -6.19188 -2.45195 -5.25808
upperback -1.9771 -2.89221 -1.51797
thorax 1.60726 -1.43674 1.15962
lowerneck -18.2796 1.50667 3.69384
upperneck 18.5755 1.51947 -2.05989
head 8.87801 0.760456 -1.11416
rclavicle 2.45495e-014 -8.69062e-015
rhumerus -41.1499 4.17346 -88.8391
rradius 27.7258
rwrist 5.16039
rhand -20.1491 8.94138
rfingers 7.12502
rthumb 6.19588 -20.948
lclavicle 2.45495e-014 -8.69062e-015
lhumerus -33.0423 -17.4385 86.7073
lradius 49.4361
lwrist 17.9934
lhand -10.7796 26.0821
lfingers 7.12502
lthumb 15.2328 55.5013
rfemur -38.9819 -4.47071 14.9175
rtibia 21.3944
rfoot -11.692 2.20738
rtoes 0.960765
lfemur 1.82137 11.2458 -28.5671
ltibia 15.0271
lfoot -18.2485 -9.08318
ltoes -19.9948
654
root 0.66057 17.9708 -5.24466 16.3299 34.8487 7.83306
lowerback -6.26968 -2.46782 -5.18279
upperback -1.98571 -2.912 -1.54434
thorax 1.6379 -1.44692 1.08592
lowerneck -18.3866 1.49395 3.70824
upperneck 18.7707 1.48293 -1.99863
head 8.96288 0.751867 -1.10066
rclavicle 3.15858e-014 3.3048e-015
rhumerus -41.0685 4.05511 -88.7496
rradius 27.5669
rwrist 5.48734
rhand -20.174 8.86839
rfingers 7.12502
rthumb 6.17184 -21.0217
lclavicle 3.15858e-014 3.3048e-015
lhumerus -33.3276 -17.1988 86.6587
lradius 48.8321
lwrist 17.5844
lhand -9.95706 26.7014
lfingers 7.12502
lthumb 16.025 56.0586
rfemur -38.7432 -4.12699 14.681
rtibia 21.8943
rfoot -11.226 1.69431
rtoes 2.32409
lfemur 2.26837 11.0727 -28.3808
ltibia 15.1998
lfoot -17.9093 -9.41425
ltoes -20.0532
655
root 0.728095 17.9566 -5.11285 16.3643 35.0136 7.91018
lowerback -6.3174 -2.45322 -5.13785
upperback -1.98264 -2.89104 -1.57355
thorax 1.66281 -1.43686 1.03053
lowerneck -18.574 1.44188 3.81597
upperneck 18.9581 1.3795 -2.01804
head 9.05899 0.709428 -1.13881
rclavicle 2.57348e-014 2.45437e-014
rhumerus -40.9835 3.86487 -88.6613
rradius 27.4756
rwrist 5.76039
rhand -19.1565 9.53494
rfingers 7.12502
rthumb 7.15409 -20.3241
lclavicle 2.57348e-014 2.45437e-014
lhumerus -33.5098 -17.292 86.6605
lradius 48.1135
lwrist 17.3265
lhand -9.31677 27.153
lfingers 7.12502
lthumb 16.6415 56.4595
rfemur -38.5616 -4.12715 14.7158
rtibia 22.4533
rfoot -10.1601 0.971155
rtoes 1.60936
lfemur 2.70928 10.8052 -28.1627
ltibia 15.3932
lfoot -17.4729 -9.73352
ltoes -21.1328
656
root 0.797137 17.9627 -4.97838 16.2285 35.2411 7.73268
lowerback -6.29267 -2.41606 -4.8925
upperback -2.00246 -2.86154 -1.50433
thorax 1.61896 -1.42128 0.969587
lowerneck -18.754 1.36877 3.85148
upperneck 19.1643 1.27074 -2.04954
head 9.1597 0.658275 -1.17037
rclavicle -2.52208e-014 -1.97791e-014
rhumerus -41.0033 3.68785 -88.4121
rradius 27.4771
rwrist 6.3282
rhand -20.3594 8.30411
rfingers 7.12502
rthumb 5.99282 -21.5911
lclavicle -2.52208e-014 -1.97791e-014
lhumerus -33.7594 -17.3065 86.7721
lradius 47.3132
lwrist 17.1787
lhand -9.12605 26.734
lfingers 7.12502
lthumb 16.8251 56.025
rfemur -38.3745 -4.40816 15.1803
rtibia 22.9775
rfoot -8.50664 0.217425
rtoes -1.31819
lfemur 3.10303 10.5333 -27.709
ltibia 15.6576
lfoot -17.0903 -9.83669
ltoes -23.5388
657
root 0.868859 17.9767 -4.84425 15.9317 35.4694 7.36737
lowerback -6.21936 -2.39814 -4.46499
upperback -2.03318 -2.87425 -1.35981
thorax 1.53443 -1.4264 0.883589
lowerneck -18.7769 1.33901 3.79989
upperneck 19.2587 1.25296 -2.08317
head 9.19573 0.64303 -1.17621
rclavicle -5.82439e-014 -3.03147e-015
rhumerus -41.0232 3.7365 -88.2421
rradius 27.4731
rwrist 6.48578
rhand -20.976 6.16222
rfingers 7.12502
rthumb 5.39752 -23.749
lclavicle -5.82439e-014 -3.03147e-015
lhumerus -34.1662 -16.8761 86.8943
lradius 46.5343
lwrist 16.884
lhand -9.48453 25.7815
lfingers 7.12502
lthumb 16.48 55.1016
rfemur -38.1673 -4.51274 15.6502
rtibia 23.4556
rfoot -7.02518 -0.145427
rtoes -2.12267
lfemur 3.5053 10.3203 -27.1115
ltibia 15.9563
lfoot -16.7453 -9.69919
ltoes -25.9633
